<svg width="16" height="22" viewBox="0 0 16 22" version="1.1" xmlns="http://www.w3.org/2000/svg" xmlns:xlink="http://www.w3.org/1999/xlink">
<title>Vector</title>
<g id="Canvas" transform="translate(16204 2833)">
<g id="Vector">
<use xlink:href="#path0_fill" transform="matrix(6.12323e-17 1 -1 6.12323e-17 -16188 -2833)" fill="#262F38"/>
</g>
</g>
<defs>
<path id="path0_fill" fill="#fff" d="M 14.8145 0.240629C 14.5148 -0.0802096 14.016 -0.0802096 13.7058 0.240629C 13.4061 0.550628 13.4061 1.06657 13.7058 1.37585L 19.3277 7.19068L 0.776183 7.19068C 0.343728 7.1914 0 7.54692 0 7.99422C 0 8.44151 0.343728 8.8086 0.776183 8.8086L 19.3277 8.8086L 13.7058 14.6126C 13.4061 14.9334 13.4061 15.4501 13.7058 15.7594C 14.016 16.0802 14.5155 16.0802 14.8145 15.7594L 21.7674 8.56797C 22.0775 8.25797 22.0775 7.74203 21.7674 7.43275L 14.8145 0.240629Z"/>
</defs>
</svg>
